HIERARCHY
ROOT Hips
{
 OFFSET 0.000000 0.000000 0.000000
 CHANNELS 6 Xposition Yposition Zposition Yrotation Xrotation Zrotation
 JOINT Chest
 {
  OFFSET 0.000000 9.585900 0.002600
  CHANNELS 3 Yrotation Xrotation Zrotation
  JOINT Chest2
  {
   OFFSET 0.000000 9.601200 -0.005300
   CHANNELS 3 Yrotation Xrotation Zrotation
   JOINT Chest3
   {
    OFFSET 0.000000 9.561800 0.000000
    CHANNELS 3 Yrotation Xrotation Zrotation
    JOINT Chest4
    {
     OFFSET 0.000000 9.552100 0.000000
     CHANNELS 3 Yrotation Xrotation Zrotation
     JOINT Neck
     {
      OFFSET 0.000000 14.453000 0.000000
      CHANNELS 3 Yrotation Xrotation Zrotation
      JOINT Head
      {
       OFFSET 0.000000 8.936500 -0.011300
       CHANNELS 3 Yrotation Xrotation Zrotation
       End Site
       {
        OFFSET 0.000000 17.073600 -0.006000
       }
      }
     }
     JOINT RightCollar
     {
      OFFSET -2.921100 9.558500 0.000000
      CHANNELS 3 Yrotation Xrotation Zrotation
      JOINT RightShoulder
      {
       OFFSET -13.519700 0.000000 0.000000
       CHANNELS 3 Yrotation Xrotation Zrotation
       JOINT RightElbow
       {
        OFFSET 0.000000 -29.696600 0.000000
        CHANNELS 3 Yrotation Xrotation Zrotation
        JOINT RightWrist
        {
         OFFSET 0.000000 -24.004700 0.000000
         CHANNELS 3 Yrotation Xrotation Zrotation
         End Site
         {
          OFFSET 0.000000 -17.728500 0.000000
         }
        }
       }
      }
     }
     JOINT LeftCollar
     {
      OFFSET 2.921100 9.558500 0.000000
      CHANNELS 3 Yrotation Xrotation Zrotation
      JOINT LeftShoulder
      {
       OFFSET 13.519700 0.000000 0.000000
       CHANNELS 3 Yrotation Xrotation Zrotation
       JOINT LeftElbow
       {
        OFFSET 0.000000 -29.696600 0.000000
        CHANNELS 3 Yrotation Xrotation Zrotation
        JOINT LeftWrist
        {
         OFFSET 0.000000 -24.004700 0.000000
         CHANNELS 3 Yrotation Xrotation Zrotation
         End Site
         {
          OFFSET 0.000000 -17.728500 0.000000
         }
        }
       }
      }
     }
    }
   }
  }
 }
 JOINT RightHip
 {
  OFFSET -7.771700 -0.012900 -0.001300
  CHANNELS 3 Yrotation Xrotation Zrotation
  JOINT RightKnee
  {
   OFFSET 0.000000 -40.869800 0.001200
   CHANNELS 3 Yrotation Xrotation Zrotation
   JOINT RightAnkle
   {
    OFFSET 0.000000 -39.717900 0.002100
    CHANNELS 3 Yrotation Xrotation Zrotation
    JOINT RightToe
    {
     OFFSET 0.000000 -4.965400 11.033500
     CHANNELS 3 Yrotation Xrotation Zrotation
     End Site
     {
      OFFSET 0.000000 -1.423100 5.872300
     }
    }
   }
  }
 }
 JOINT LeftHip
 {
  OFFSET 7.771700 -0.012900 -0.001300
  CHANNELS 3 Yrotation Xrotation Zrotation
  JOINT LeftKnee
  {
   OFFSET 0.000000 -40.869800 0.001200
   CHANNELS 3 Yrotation Xrotation Zrotation
   JOINT LeftAnkle
   {
    OFFSET 0.000000 -39.717900 0.002100
    CHANNELS 3 Yrotation Xrotation Zrotation
    JOINT LeftToe
    {
     OFFSET 0.000000 -4.965400 11.033500
     CHANNELS 3 Yrotation Xrotation Zrotation
     End Site
     {
      OFFSET 0.000000 -1.423100 5.872300
     }
    }
   }
  }
 }
}
MOTION
Frames: 8
Frame Time: 0.008333
-38.694549 50.641530 4.338385 162.769799 -6.345154 0.315328 3.137881 7.579486 1.240873 0.142638 0.377368 0.011767 0.242993 0.652791 0.027006 2.736664 7.210728 0.426143 3.126018 17.787646 -0.400973 5.897626 -2.679572 -1.784634 3.887416 5.104748 -0.134043 -7.804427 -14.716541 -6.796701 -38.955762 -78.171796 59.258242 -1.080919 -0.556916 -27.944601 -6.718515 2.004461 -0.123578 20.277396 -7.228958 -0.970104 41.740468 -72.159203 -59.235150 -0.116077 7.079345 6.404152 6.294294 -74.354295 -6.394142 -110.739070 80.915560 -110.974227 -3.733209 -13.960898 2.645232 -0.304738 0.849938 -0.143834 -9.538426 -77.258468 26.187521 109.799568 78.974229 106.338474 -16.011606 -20.992760 0.106468 -0.288729 -0.993058 -0.147461
-38.694027 50.641905 4.338152 162.778371 -6.342345 0.313264 3.137575 7.581994 1.237665 0.135528 0.372463 0.016297 0.250606 0.657231 0.021921 2.734847 7.207113 0.426964 3.124119 17.789769 -0.404796 5.898079 -2.675784 -1.789527 3.884101 5.103435 -0.130990 -7.802484 -14.708780 -6.802262 -38.947325 -78.177854 59.262322 -1.071363 -0.552797 -27.944954 -6.725430 2.005712 -0.121106 20.274819 -7.224388 -0.981694 41.711991 -72.170748 -59.205037 -0.116998 7.076119 6.405191 6.290493 -74.356262 -6.396328 -110.760786 80.918486 -110.994375 -3.737940 -13.960710 2.647498 -0.308848 0.848003 -0.144189 -9.563423 -77.262522 26.198885 109.775362 78.961215 106.314240 -15.997838 -20.980020 0.101813 -0.322379 -1.001839 -0.150669
-38.696146 50.642186 4.337998 162.787568 -6.333674 0.325278 3.128705 7.575139 1.222747 0.139872 0.374116 0.015986 0.246393 0.655500 0.022159 2.735918 7.207621 0.423423 3.128965 17.790494 -0.407513 5.903661 -2.668834 -1.809862 3.883987 5.102705 -0.127605 -7.802646 -14.705049 -6.803689 -38.954445 -78.180796 59.272339 -1.056993 -0.523125 -27.940113 -6.731072 2.007502 -0.118770 20.273415 -7.221726 -0.989961 41.685813 -72.175560 -59.176875 -0.118719 7.078168 6.405674 6.336156 -74.363070 -6.450911 -110.781399 80.923377 -111.015785 -3.746523 -13.963859 2.648750 -0.308546 0.851000 -0.142041 -9.523641 -77.274931 26.149518 109.741002 78.953444 106.283778 -16.038288 -20.954164 0.103701 -0.305039 -1.022155 -0.145785
-38.696387 50.642457 4.338521 162.792996 -6.324155 0.324834 3.124138 7.566480 1.219869 0.140696 0.375110 0.013667 0.245671 0.654483 0.024426 2.735433 7.209408 0.420025 3.132634 17.790338 -0.410061 5.905151 -2.668686 -1.812677 3.886219 5.102412 -0.128977 -7.801391 -14.702119 -6.800335 -38.912509 -78.183604 59.240470 -1.060090 -0.517947 -27.940996 -6.733048 2.008395 -0.120389 20.273275 -7.224993 -0.987054 41.655828 -72.171863 -59.146676 -0.108188 7.087273 6.405564 6.342626 -74.371424 -6.460525 -110.778664 80.924127 -111.012139 -3.744276 -13.962733 2.648086 -0.305051 0.851747 -0.141574 -9.533687 -77.284155 26.154356 109.698245 78.946088 106.243349 -16.057794 -20.941332 0.099013 -0.289917 -1.025145 -0.137282
-38.697689 50.642736 4.338927 162.797413 -6.313522 0.329740 3.118067 7.557793 1.210301 0.141593 0.377234 0.010684 0.244832 0.652279 0.026937 2.736578 7.212273 0.417523 3.134281 17.788025 -0.413543 5.906407 -2.671069 -1.807304 3.887441 5.103755 -0.128265 -7.797259 -14.702322 -6.799569 -38.855075 -78.179792 59.205441 -1.063184 -0.528922 -27.958959 -6.734832 2.015585 -0.121462 20.263472 -7.227787 -0.996050 41.605361 -72.159180 -59.086961 -0.120468 7.065017 6.405434 6.360401 -74.378621 -6.482375 -110.765715 80.927419 -110.999694 -3.744694 -13.969660 2.643198 -0.306328 0.859281 -0.138111 -9.517065 -77.294607 26.132418 109.659624 78.942897 106.207937 -16.082762 -20.931421 0.096896 -0.269633 -1.023128 -0.129783
-38.699384 50.643147 4.338114 162.804507 -6.309561 0.337764 3.107683 7.560363 1.191891 0.144219 0.371917 0.018748 0.242742 0.658994 0.018412 2.739419 7.207055 0.423224 3.135487 17.789674 -0.418643 5.911216 -2.674094 -1.815051 3.890469 5.107167 -0.130327 -7.793715 -14.702384 -6.801324 -38.892813 -78.177671 59.238643 -1.060354 -0.524782 -27.952923 -6.734983 2.015733 -0.118763 20.247192 -7.218432 -1.017921 41.573181 -72.176013 -59.038634 -0.115285 7.073062 6.410070 6.387823 -74.380399 -6.516789 -110.779914 80.928105 -111.014847 -3.745953 -13.976325 2.640455 -0.306686 0.863507 -0.135733 -9.480014 -77.299792 26.085213 109.634183 78.941756 106.187056 -16.101133 -20.923908 0.096371 -0.289941 -1.019544 -0.130872
-38.700392 50.643559 4.337280 162.808733 -6.307383 0.341319 3.100078 7.562538 1.181987 0.143387 0.371110 0.018402 0.243727 0.660437 0.018607 2.742847 7.204384 0.424011 3.133602 17.795221 -0.434120 5.917971 -2.683339 -1.814236 3.895299 5.107697 -0.134840 -7.800825 -14.696411 -6.797663 -38.899652 -78.179975 59.251878 -1.048474 -0.513057 -27.946201 -6.741448 2.019047 -0.120151 20.247062 -7.221834 -1.021443 41.551133 -72.177072 -59.012109 -0.104963 7.080573 6.425003 6.407702 -74.381419 -6.536745 -110.786189 80.925664 -111.022477 -3.747244 -13.978961 2.640545 -0.306821 0.864973 -0.134238 -9.459061 -77.302730 26.056947 109.620154 78.939990 106.176440 -16.104294 -20.922447 0.095929 -0.329812 -1.012178 -0.137562
-38.699207 50.643970 4.336530 162.810839 -6.309089 0.331613 3.096377 7.568008 1.186046 0.144617 0.371353 0.018898 0.242209 0.660419 0.017705 2.736364 7.214296 0.415464 3.144360 17.783723 -0.432057 5.925130 -2.689703 -1.819179 3.908987 5.094807 -0.128322 -7.804404 -14.696400 -6.793853 -38.849700 -78.186620 59.206321 -1.056693 -0.518602 -27.947855 -6.738491 2.014665 -0.120474 20.246275 -7.223621 -1.025556 41.511498 -72.178639 -58.966498 -0.108071 7.097162 6.427644 6.384079 -74.379846 -6.504769 -110.789198 80.923388 -111.026943 -3.753242 -13.974580 2.641575 -0.308377 0.860338 -0.132655 -9.495805 -77.299937 26.088242 109.622029 78.938379 106.177765 -16.068426 -20.928407 0.091563 -0.315667 -1.000750 -0.139113
